<?xml version="1.0" encoding="UTF-8"?>
<svg version="1.1" xmlns="http://www.w3.org/2000/svg" width="740" height="740">
<path d="M0 0 C244.2 0 488.4 0 740 0 C740 244.2 740 488.4 740 740 C495.8 740 251.6 740 0 740 C0 495.8 0 251.6 0 0 Z " fill="#FEFEFE" transform="translate(0,0)"/>
<path d="M0 0 C0.12375 0.63421875 0.2475 1.2684375 0.375 1.921875 C2.51747293 11.61656501 6.25139453 20.55804187 10.05273438 29.70166016 C10.86443987 31.67109199 11.64621317 33.65281445 12.421875 35.63671875 C14.59958852 41.15877802 17.04986657 45.9584191 20.48046875 50.8046875 C22.04051386 53.05853159 23.39161616 55.36995845 24.75 57.75 C27.68023462 62.73296582 31.13473869 67.21201311 34.74902344 71.70996094 C38 75.79797055 38 75.79797055 38 78 C38.66 78 39.32 78 40 78 C41.33984375 79.36328125 41.33984375 79.36328125 42.9375 81.3125 C46.08326912 85.0157472 49.38075917 88.50238092 52.8125 91.9375 C53.53264282 92.6641687 53.53264282 92.6641687 54.26733398 93.40551758 C56.88471124 96.03332653 56.88471124 96.03332653 60 98 C60 98.66 60 99.32 60 100 C60.5875708 100.27457031 61.1751416 100.54914063 61.78051758 100.83203125 C63.91915135 101.95745463 65.63509932 103.17313528 67.51171875 104.6875 C86.75119543 119.95489567 111.49600889 136.09920178 136 141 C136 141.66 136 142.32 136 143 C133.69833734 144.64666823 131.40964295 146.15034727 129 147.625 C128.28247559 148.0686792 127.56495117 148.5123584 126.82568359 148.96948242 C120.58683475 152.76488414 114.17240516 156.09639872 107.59375 159.2578125 C104.71039349 160.65561359 101.92850731 162.14173056 99.125 163.6875 C92.50877844 167.00678683 85.24115454 168.62946588 78.10351562 170.45654297 C76.30831657 170.9203444 74.52044714 171.41236342 72.734375 171.91015625 C33.72445752 182.51531141 -3.16558901 171.9070644 -38 154 C-38 153.34 -38 152.68 -38 152 C-39.98 151.34 -41.96 150.68 -44 150 C-44 149.34 -44 148.68 -44 148 C-44.763125 147.731875 -45.52625 147.46375 -46.3125 147.1875 C-48.91245703 146.03868178 -50.38885423 145.32721056 -52 143 C-51.71309003 138.71547779 -48.83170411 136.35955177 -46 133.375 C-42.61733497 129.97137564 -42.61733497 129.97137564 -40 126 C-40.99330322 125.89453857 -41.98660645 125.78907715 -43.01000977 125.68041992 C-46.72188812 125.28335058 -50.43203348 124.87170539 -54.1418457 124.45581055 C-55.7426515 124.27837378 -57.34389135 124.10480588 -58.94555664 123.93530273 C-61.25794539 123.68988581 -63.56837589 123.43024179 -65.87890625 123.16796875 C-66.58648575 123.09595749 -67.29406525 123.02394623 -68.02308655 122.94975281 C-75.53455167 122.06786646 -81.01426835 119.89222831 -86 114 C-86 113.34 -86 112.68 -86 112 C-86.66 112 -87.32 112 -88 112 C-88 111.34 -88 110.68 -88 110 C-88.66 110 -89.32 110 -90 110 C-90 109.34 -90 108.68 -90 108 C-90.66 108 -91.32 108 -92 108 C-96 102.58823529 -96 102.58823529 -96 100 C-96.66 100 -97.32 100 -98 100 C-99.64076294 97.99326763 -101.14269969 95.99519598 -102.625 93.875 C-103.29378174 92.92536377 -103.29378174 92.92536377 -103.97607422 91.95654297 C-110.72030812 82.23145881 -116.19946476 71.85895249 -121.38720703 61.24072266 C-122.7962067 58.35963378 -124.21746871 55.67379693 -126 53 C-126.07905064 50.66800612 -126.08798769 48.33167378 -126 46 C-125.05382812 45.64808594 -124.10765625 45.29617188 -123.1328125 44.93359375 C-115.83963171 42.2137224 -108.56306131 39.45665671 -101.3125 36.625 C-94.57264594 33.99398527 -87.8226459 31.39095672 -81.0625 28.8125 C-80.22307861 28.49168457 -79.38365723 28.17086914 -78.51879883 27.84033203 C-74.27299019 26.22347735 -70.01784788 24.64172301 -65.7421875 23.10546875 C-57.91563497 20.27177631 -50.20067224 17.15166853 -42.47070312 14.06640625 C-35.91528349 11.47012925 -29.34544279 9.08416315 -22.64135742 6.90234375 C-18.0150536 5.32190019 -13.65828506 3.22982433 -9.2265625 1.171875 C-5.90791971 -0.03344321 -3.49794734 -0.23249197 0 0 Z " fill="#8BBF4C" transform="translate(312,380)"/>
<path d="M0 0 C19.14 0 38.28 0 58 0 C58.04524154 40.79960944 58.08103478 81.59921226 58.10213066 122.39884175 C58.10463198 127.21893816 58.10722063 132.03903452 58.10986328 136.85913086 C58.1103879 137.81869878 58.11091252 138.7782667 58.11145304 139.76691244 C58.12014843 155.29073452 58.13591364 170.81454175 58.15430559 186.33835503 C58.17302873 202.27498176 58.18412183 218.21160072 58.18817699 234.148238 C58.19091704 243.97678294 58.19956184 253.80528588 58.21583293 263.63381789 C58.22642962 270.37960152 58.22959456 277.12536353 58.22700275 283.87115487 C58.22572564 287.75928076 58.22764135 291.6473334 58.23841095 295.53544617 C58.24822034 299.10316366 58.24858566 302.67075938 58.24179779 306.23848275 C58.24056688 308.12372933 58.24912347 310.00897471 58.25816262 311.89420003 C58.12112188 351.38578474 38.00900569 383.4596251 12.078125 411.67578125 C9.95801492 413.9766971 9.95801492 413.9766971 8.109375 416.54296875 C6 419 6 419 0 423 C0 316.41 0 209.82 0 100 C4.95 100 9.9 100 15 100 C13.92806396 98.8030249 12.85612793 97.6060498 11.75170898 96.37280273 C-2.70753854 78.53232244 -1.87615443 61.71305069 -1.02996826 39.72644043 C-0.84645598 34.43959096 -0.78013982 29.15001194 -0.69316864 23.86086273 C-0.54966939 15.90176759 -0.26177865 7.96001009 0 0 Z " fill="#767676" transform="translate(473,135)"/>
<path d="M0 0 C19.8 0 39.6 0 60 0 C60 18.38023256 60 18.38023256 54.25 24.625 C53.17090491 25.9080389 52.09276214 27.19187942 51.015625 28.4765625 C50.53383789 29.01361816 50.05205078 29.55067383 49.55566406 30.10400391 C47.5143166 32.59193617 45.78514437 35.32228344 44 38 C49.28 38 54.56 38 60 38 C60 129.74 60 221.48 60 316 C37.67327695 313.02310359 21.0726994 305.99487147 3 293 C2.13406629 292.44859722 1.26813257 291.89719444 0.37595844 291.32908249 C-2 289 -2 289 -2.61523914 285.77476883 C-2.61063018 284.48794582 -2.60602121 283.20112282 -2.60127258 281.87530518 C-2.60554471 281.15726581 -2.60981683 280.43922645 -2.61421841 279.69942832 C-2.6224561 277.2927998 -2.59495351 274.88791327 -2.56762695 272.48144531 C-2.56621664 270.75673972 -2.56700814 269.03203112 -2.56983948 267.30732727 C-2.57127569 262.62356682 -2.54185285 257.94044495 -2.50696969 253.25683308 C-2.4757403 248.36280354 -2.47277815 243.4687598 -2.46684265 238.574646 C-2.45129415 229.30627918 -2.41025205 220.03820679 -2.3600952 210.7699697 C-2.30423306 200.21872872 -2.27672311 189.66747378 -2.25161803 179.11612177 C-2.1993371 157.41057899 -2.11036959 135.7053184 -2 114 C3.61 114 9.22 114 15 114 C13.02603733 110.45705539 11.05108154 106.91469471 9.07348633 103.3737793 C8.40068258 102.16838663 7.72847976 100.96265835 7.05688477 99.7565918 C6.09288084 98.02565339 5.12655352 96.29600957 4.16015625 94.56640625 C3.57886963 93.52427979 2.99758301 92.48215332 2.39868164 91.40844727 C1.20986135 89.12440597 1.20986135 89.12440597 0 88 C-0.09516211 85.2611158 -0.12554594 82.54752059 -0.11352539 79.80834961 C-0.11367142 78.94988937 -0.11381744 78.09142914 -0.1139679 77.20695496 C-0.11326847 74.35539262 -0.1054747 71.50389475 -0.09765625 68.65234375 C-0.09579218 66.68079158 -0.09436822 64.70923895 -0.09336853 62.73768616 C-0.08954251 57.53773733 -0.07971152 52.33781625 -0.06866455 47.13787842 C-0.05665806 40.90460534 -0.05204859 34.67132301 -0.04621124 28.43804169 C-0.03649981 18.95867514 -0.01734384 9.47936951 0 0 Z " fill="#767676" transform="translate(392,198)"/>
<path d="M0 0 C18.81 0 37.62 0 57 0 C57 23.93782383 57 23.93782383 48 36 C47.01 37.65 46.02 39.3 45 41 C48.96 41 52.92 41 57 41 C57 93.47 57 145.94 57 200 C52.687556 196.40629667 50.25362031 194.37522031 47.25 190.0625 C46.57324219 189.09957031 45.89648438 188.13664063 45.19921875 187.14453125 C44.47347656 186.10683594 43.74773437 185.06914062 43 184 C42.19668161 182.89778779 41.39061739 181.79757236 40.58203125 180.69921875 C30.95202508 167.5655135 22.88259122 153.75847349 16 139 C15.68256836 138.32743164 15.36513672 137.65486328 15.03808594 136.96191406 C9.59937994 125.26451255 5 112.0508443 5 99 C2.69 99 0.38 99 -2 99 C-2 94.05 -2 89.1 -2 84 C4.27 84 10.54 84 17 84 C15.865625 82.14375 14.73125 80.2875 13.5625 78.375 C12.52529449 76.67775462 11.4926913 74.97741781 10.49047852 73.25927734 C8.98635439 70.86130223 8.98635439 70.86130223 6.72631836 68.44775391 C-3.00486063 56.37276438 -0.98824286 42.42511124 -0.5625 27.625 C-0.376875 18.50875 -0.19125 9.3925 0 0 Z " fill="#767576" transform="translate(312,271)"/>
<path d="M0 0 C6.59369892 0.60882595 13.13408853 1.40000509 19.68359375 2.37109375 C27.29421271 3.47947946 34.90986476 4.53275426 42.53515625 5.53515625 C44.45379598 5.7895632 46.37241579 6.04412044 48.29101562 6.29882812 C51.21122451 6.68628635 54.13165467 7.07147108 57.05297852 7.45043945 C59.94378399 7.82626548 62.83326624 8.21111858 65.72265625 8.59765625 C66.59857925 8.70916519 67.47450226 8.82067413 68.37696838 8.93556213 C69.59621254 9.1009977 69.59621254 9.1009977 70.84008789 9.26977539 C71.90423668 9.40942467 71.90423668 9.40942467 72.98988342 9.55189514 C75.22324911 10.04976777 77.00001005 10.90304235 79 12 C78.13375 12.96421875 77.2675 13.9284375 76.375 14.921875 C75.24948313 16.19746079 74.12451133 17.47352768 73 18.75 C72.42765625 19.38421875 71.8553125 20.0184375 71.265625 20.671875 C70.72421875 21.290625 70.1828125 21.909375 69.625 22.546875 C68.87089844 23.39523926 68.87089844 23.39523926 68.1015625 24.26074219 C66.64329109 26.2200827 66.64329109 26.2200827 67 30 C67.51175781 30.23589844 68.02351563 30.47179687 68.55078125 30.71484375 C71.18642328 32.09782019 73.67029645 33.66664805 76.17382812 35.27392578 C104.26008143 53.24667614 131.79953659 62.1499086 165.125 62.375 C165.88196167 62.38321777 166.63892334 62.39143555 167.41882324 62.39990234 C178.5982985 62.48958538 189.06450081 61.29369235 200 59 C201.00256836 58.79697266 202.00513672 58.59394531 203.03808594 58.38476562 C226.85471612 53.31294756 253.75788096 43.36424301 273 28 C273.66 28.33 274.32 28.66 275 29 C271.51131966 32.81429051 268.00864013 36.6146867 264.48632812 40.39794922 C263.31065869 41.66515402 262.14557818 42.9421822 260.984375 44.22265625 C238.09902782 68.49967995 200.55741674 86.00905548 167.24243164 87.12597656 C162.74508242 87.22113257 158.24826196 87.24660517 153.75 87.25 C152.94698456 87.25067474 152.14396912 87.25134949 151.31661987 87.25204468 C138.64861558 87.23515842 126.43262146 86.60601983 114 84 C113.15018555 83.82839355 112.30037109 83.65678711 111.42480469 83.47998047 C87.91311114 78.63475301 65.34462214 70.17418994 44.50390625 58.25 C42.01907681 56.77667241 42.01907681 56.77667241 39 57 C36.03 62.61 33.06 68.22 30 74 C29.34 74 28.68 74 28 74 C12.5362912 33.4314661 12.5362912 33.4314661 6.26602173 16.91537476 C5.57380806 15.09228219 4.88102496 13.26940587 4.18823242 11.4465332 C3.77677979 10.36202881 3.36532715 9.27752441 2.94140625 8.16015625 C2.58763916 7.22824463 2.23387207 6.29633301 1.86938477 5.33618164 C1.21204866 3.56981006 0.59599994 1.78799983 0 0 Z " fill="#777778" transform="translate(185,498)"/>
<path d="M0 0 C0 10.89 0 21.78 0 33 C-7.425 33.2165625 -7.425 33.2165625 -15 33.4375 C-20.66701717 33.61548421 -26.33354448 33.80502673 -32 34 C-32.95455078 34.03206543 -33.90910156 34.06413086 -34.89257812 34.09716797 C-42.50734879 34.37449604 -49.51874158 35.11388083 -56.859375 37.1796875 C-60.62843836 38.16414435 -64.41473161 38.8315196 -68.25 39.5 C-73.79607146 40.47959795 -78.78181041 41.8926542 -84 44 C-85.32 44 -86.64 44 -88 44 C-88 44.66 -88 45.32 -88 46 C-89.19625 46.433125 -90.3925 46.86625 -91.625 47.3125 C-94.30336967 48.3062414 -96.70117353 49.36407087 -99.25 50.6875 C-102 52 -102 52 -106 52 C-106 52.66 -106 53.32 -106 54 C-106.96099609 54.45439453 -106.96099609 54.45439453 -107.94140625 54.91796875 C-112.1688282 56.96552782 -116.17361785 58.98554989 -119.9375 61.8125 C-123 64 -123 64 -126 64 C-126 64.66 -126 65.32 -126 66 C-127.6171875 67.41015625 -127.6171875 67.41015625 -129.875 69.0625 C-137.312883 74.6937048 -144.20574836 80.67197586 -150 88 C-152.1875 90.375 -152.1875 90.375 -154 92 C-154.66 92 -155.32 92 -156 92 C-156.268125 92.57234375 -156.53625 93.1446875 -156.8125 93.734375 C-158.04132636 96.07884634 -159.42522176 98.12404938 -161 100.25 C-161.515625 100.95640625 -162.03125 101.6628125 -162.5625 102.390625 C-163.036875 102.92171875 -163.51125 103.4528125 -164 104 C-164.66 104 -165.32 104 -166 104 C-166.12221924 104.58845703 -166.24443848 105.17691406 -166.37036133 105.78320312 C-167.0065663 108.02311828 -167.80387078 109.53038596 -169.07421875 111.46875 C-169.49171387 112.11634277 -169.90920898 112.76393555 -170.33935547 113.43115234 C-170.78424316 114.11387207 -171.22913086 114.7965918 -171.6875 115.5 C-177.90131724 125.24434494 -182.85880399 135.21201039 -187 146 C-187.6658611 147.62533025 -188.33253851 149.25032631 -189 150.875 C-194.97014704 165.89365114 -198.7260452 181.01794361 -200.92163086 196.98706055 C-201.5232998 201.24416767 -202.21946043 205.23168223 -203.625 209.3125 C-205.47090225 214.67715341 -205.54905706 220.16007365 -205.7890625 225.77734375 C-206 229 -206 229 -207 232 C-207.22325814 234.05893621 -207.40705759 236.12233653 -207.5625 238.1875 C-207.64628906 239.27417969 -207.73007813 240.36085938 -207.81640625 241.48046875 C-207.90728516 242.72763672 -207.90728516 242.72763672 -208 244 C-214.55977626 232.85251033 -212.3088506 214.84805576 -212.26074219 202.41943359 C-212.25004078 199.13750642 -212.2606846 195.8561292 -212.2734375 192.57421875 C-212.28572895 175.17723526 -211.15049911 158.80800402 -206.52783203 141.98535156 C-205.98768366 139.95367417 -205.5006404 137.91541127 -205.02734375 135.8671875 C-200.67741394 117.12681237 -191.59857099 100.55471185 -182 84 C-181.34 84 -180.68 84 -180 84 C-179.34 82.02 -178.68 80.04 -178 78 C-177.34 78 -176.68 78 -176 78 C-176 77.34 -176 76.68 -176 76 C-175.34 76 -174.68 76 -174 76 C-173.79375 75.319375 -173.5875 74.63875 -173.375 73.9375 C-171.57104973 70.08360625 -169.0989655 66.92212236 -166 64 C-165.34 64 -164.68 64 -164 64 C-164 63.34 -164 62.68 -164 62 C-163.34 62 -162.68 62 -162 62 C-162 61.34 -162 60.68 -162 60 C-160.4609375 58.44921875 -160.4609375 58.44921875 -158.375 56.6875 C-157.64796875 56.07132812 -156.9209375 55.45515625 -156.171875 54.8203125 C-155.45515625 54.21960938 -154.7384375 53.61890625 -154 53 C-153.40703125 52.48179687 -152.8140625 51.96359375 -152.203125 51.4296875 C-148.24428571 48 -148.24428571 48 -146 48 C-146 47.34 -146 46.68 -146 46 C-144.09625645 44.55036041 -142.12532841 43.18815677 -140.125 41.875 C-139.03445312 41.15054688 -137.94390625 40.42609375 -136.8203125 39.6796875 C-134 38 -134 38 -132 38 C-132 37.34 -132 36.68 -132 36 C-125.375 32 -125.375 32 -122 32 C-122 31.34 -122 30.68 -122 30 C-111.47710106 24.92530945 -100.93541776 20.11933723 -90 16 C-89.06671875 15.64292969 -88.1334375 15.28585938 -87.171875 14.91796875 C-60.40123418 5.31878183 -28.41694024 0 0 0 Z " fill="#8CC04E" transform="translate(382,208)"/>
<path d="M0 0 C0.66 0 1.32 0 2 0 C3.49821059 3.37097383 4 5.20442119 4 9 C4.66 9 5.32 9 6 9 C9.19635723 17.15122814 12.24616807 25.17089497 14.21875 33.71875 C15.23032143 37.96735002 16.39135081 42.16802511 17.5625 46.375 C17.87779663 47.51751221 17.87779663 47.51751221 18.19946289 48.68310547 C19.0900035 51.88087574 20.00642892 55.01811787 21.1171875 58.1484375 C22.07509841 61.24257452 22.37187533 64.02154815 22.5625 67.25 C22.71536617 71.27628227 22.71536617 71.27628227 24 75 C25.96645165 87.83804121 26.40679464 100.6567613 26.375 113.625 C26.3737915 114.54342682 26.37258301 115.46185364 26.37133789 116.40811157 C26.25700668 148.52507282 19.50047494 180.62435761 0 207 C-0.66 207 -1.32 207 -2 207 C-2.28875 207.763125 -2.5775 208.52625 -2.875 209.3125 C-4 212 -4 212 -6 215 C-6.66 215 -7.32 215 -8 215 C-8 215.66 -8 216.32 -8 217 C-8.66 217 -9.32 217 -10 217 C-10 217.66 -10 218.32 -10 219 C-10.66 219 -11.32 219 -12 219 C-12 219.66 -12 220.32 -12 221 C-12.66 221 -13.32 221 -14 221 C-14 221.66 -14 222.32 -14 223 C-14.66 223 -15.32 223 -16 223 C-16.2475 223.5775 -16.495 224.155 -16.75 224.75 C-18.18299988 227.32939979 -19.78424676 229.06121592 -22 231 C-22.66 231 -23.32 231 -24 231 C-24.66 232.32 -25.32 233.64 -26 235 C-26.66 235 -27.32 235 -28 235 C-28.66 236.32 -29.32 237.64 -30 239 C-30.66 239 -31.32 239 -32 239 C-32 239.66 -32 240.32 -32 241 C-37.47619048 246 -37.47619048 246 -40 246 C-40 246.66 -40 247.32 -40 248 C-41.92587579 249.63139937 -43.84326717 251.13723225 -45.875 252.625 C-46.43058594 253.04523438 -46.98617187 253.46546875 -47.55859375 253.8984375 C-51.73764712 257 -51.73764712 257 -54 257 C-54 257.66 -54 258.32 -54 259 C-55.40185547 260.23339844 -55.40185547 260.23339844 -57.3671875 261.609375 C-58.08229492 262.11355957 -58.79740234 262.61774414 -59.53417969 263.13720703 C-60.30665039 263.66942871 -61.07912109 264.20165039 -61.875 264.75 C-62.66293945 265.29640137 -63.45087891 265.84280273 -64.26269531 266.40576172 C-66.50111853 267.94830924 -68.74790563 269.47750266 -71 271 C-71.86367188 271.58523438 -72.72734375 272.17046875 -73.6171875 272.7734375 C-85.34595645 280.20595409 -100.256003 288.31524073 -114 291 C-114.99 290.67 -115.98 290.34 -117 290 C-116.10861328 289.47212891 -116.10861328 289.47212891 -115.19921875 288.93359375 C-109.46475254 285.51788526 -103.83054502 281.98254517 -98.25 278.3203125 C-96 277 -96 277 -94 277 C-94 276.34 -94 275.68 -94 275 C-88.58823529 271 -88.58823529 271 -86 271 C-86 270.34 -86 269.68 -86 269 C-84.40273461 267.72815878 -82.74413105 266.5329956 -81.0625 265.375 C-76.31291033 262.02451427 -72.00890402 258.44779402 -67.77734375 254.46875 C-66 253 -66 253 -64 253 C-64 252.34 -64 251.68 -64 251 C-63.34 251 -62.68 251 -62 251 C-62 250.34 -62 249.68 -62 249 C-61.34 249 -60.68 249 -60 249 C-60 248.34 -60 247.68 -60 247 C-59.34 247 -58.68 247 -58 247 C-58 246.34 -58 245.68 -58 245 C-56.50390625 243.5625 -56.50390625 243.5625 -54.5625 242 C-51.84811762 239.85474956 -51.84811762 239.85474956 -50 237 C-49.34 237 -48.68 237 -48 237 C-47.75894531 236.43796875 -47.51789063 235.8759375 -47.26953125 235.296875 C-45.74154541 232.532396 -43.85917749 230.54212346 -41.6875 228.25 C-38.77876499 225.09809101 -36.25423646 222.06289189 -34.0625 218.375 C-33.0415625 216.704375 -33.0415625 216.704375 -32 215 C-31.34 215 -30.68 215 -30 215 C-29.75507812 214.31550781 -29.51015625 213.63101563 -29.2578125 212.92578125 C-27.77209398 209.46987079 -25.85914041 206.36984146 -23.875 203.1875 C-14.19372998 187.32715692 -7.18486814 171.15307585 -3 153 C-2.81687256 152.26547607 -2.63374512 151.53095215 -2.44506836 150.77416992 C-0.57004075 142.21722576 -0.7315184 133.65992543 -0.79418945 124.94702148 C-0.81253349 122.30768207 -0.8146979 119.6686937 -0.81445312 117.02929688 C-0.81936707 115.32812201 -0.82519485 113.62694948 -0.83203125 111.92578125 C-0.83314407 111.14850174 -0.8342569 110.37122223 -0.83540344 109.57038879 C-0.87771543 104.63144062 -1.34228403 99.89464551 -2 95 C-2.52534784 85.58437904 -2.04698151 76.0623236 -1.52734375 66.65625 C-0.83730125 53.17413499 -0.65394433 39.68390854 -0.4375 26.1875 C-0.39417266 23.63345856 -0.35055462 21.07942204 -0.30664062 18.52539062 C-0.20108615 12.35031288 -0.0990806 6.17518484 0 0 Z " fill="#8BC14D" transform="translate(544,313)"/>
<path d="M0 0 C19.47 0 38.94 0 59 0 C59 18.33612861 59 18.33612861 54.5625 23.625 C53.64795338 24.84632074 52.73523937 26.0690156 51.82421875 27.29296875 C51.35677246 27.8967334 50.88932617 28.50049805 50.40771484 29.12255859 C48.04455218 32.27426183 45.97400393 35.60683939 43.875 38.9375 C42.59625 40.938125 41.3175 42.93875 40 45 C45.94 45 51.88 45 58 45 C58 52.26 58 59.52 58 67 C47.55528093 71.43945044 36.99107464 75.54993445 26.40576172 79.64038086 C23.3459342 80.82374093 20.28819058 82.0123831 17.23046875 83.20117188 C15.28658285 83.95344682 13.34257686 84.70541155 11.3984375 85.45703125 C10.48395844 85.81320023 9.56947937 86.1693692 8.62728882 86.53633118 C7.36424423 87.02265266 7.36424423 87.02265266 6.07568359 87.51879883 C5.334664 87.80572098 4.59364441 88.09264313 3.83016968 88.38825989 C2 89 2 89 0 89 C0 59.63 0 30.26 0 0 Z " fill="#767676" transform="translate(236,312)"/>
<path d="M0 0 C9.68968785 -0.39119858 17.3138063 1.93660403 24.7890625 8.18359375 C31.09364331 14.45079563 34.05103987 21.62215795 34.078125 30.4609375 C33.9843135 41.55883761 30.33072725 48.58333525 22.515625 56.3984375 C13.39026114 62.20548723 4.37658447 63.52510889 -6.234375 62.1484375 C-14.88306398 59.27950193 -20.9479173 53.67477262 -25.546875 45.94140625 C-29.32327526 38.03456821 -30.00994565 28.42771053 -27.2109375 20.10546875 C-25.29068067 16.16603276 -23.06214726 12.50689088 -20.234375 9.1484375 C-19.574375 9.1484375 -18.914375 9.1484375 -18.234375 9.1484375 C-18.234375 8.4884375 -18.234375 7.8284375 -18.234375 7.1484375 C-12.38673592 2.79159969 -7.23425208 0.48059717 0 0 Z " fill="#040303" transform="translate(269.234375,419.8515625)"/>
<path d="M0 0 C0.33 0 0.66 0 1 0 C0.8453125 1.3921875 0.8453125 1.3921875 0.6875 2.8125 C0.790625 3.864375 0.89375 4.91625 1 6 C3.39056942 7.9354148 3.39056942 7.9354148 6 9 C5.67 10.65 5.34 12.3 5 14 C1.7 13.67 -1.6 13.34 -5 13 C-5 14.32 -5 15.64 -5 17 C-4.31292969 17.17015625 -3.62585938 17.3403125 -2.91796875 17.515625 C-2.01691406 17.75796875 -1.11585938 18.0003125 -0.1875 18.25 C0.70582031 18.48203125 1.59914063 18.7140625 2.51953125 18.953125 C5.43539052 20.18375537 6.47289452 21.25121013 8 24 C7.93172242 27.82354429 7.50774917 30.2079113 5.4375 33.4375 C1.85236684 35.73566228 -0.79077755 35.28061483 -5 35 C-5 36.98 -5 38.96 -5 41 C-5.99 41.495 -5.99 41.495 -7 42 C-7 40.02 -7 38.04 -7 36 C-8.98 35.01 -10.96 34.02 -13 33 C-12.67 31.35 -12.34 29.7 -12 28 C-11.22914063 28.08378906 -10.45828125 28.16757812 -9.6640625 28.25390625 C-8.66117187 28.35574219 -7.65828125 28.45757812 -6.625 28.5625 C-5.62726563 28.66691406 -4.62953125 28.77132813 -3.6015625 28.87890625 C-1.015963 29.21144708 -1.015963 29.21144708 1 28 C0.67 27.01 0.34 26.02 0 25 C-1.98982206 24.47807946 -3.98184507 23.96169214 -5.98828125 23.5078125 C-8.73667805 22.81404243 -10.20754901 22.24056374 -12 20 C-12.722409 15.02340466 -12.79881382 13.12773716 -9.875 9 C-6.57244809 6.70257258 -4.9354597 6.54238841 -1 7 C-1.020625 6.030625 -1.04125 5.06125 -1.0625 4.0625 C-1 1 -1 1 0 0 Z " fill="#E7E5E6" transform="translate(275,430)"/>
<path d="M0 0 C4.73323089 0.52472642 9.46538878 1.058034 14.19677734 1.59912109 C15.80458721 1.78179002 17.41265995 1.96216107 19.02099609 2.14013672 C21.34025776 2.3971942 23.65843075 2.66265479 25.9765625 2.9296875 C27.04567368 3.04544632 27.04567368 3.04544632 28.13638306 3.1635437 C32.31257294 3.65426008 36.06150813 4.52912684 40 6 C38.42219077 9.71045247 36.09296752 12.29906384 33.375 15.25 C32.55773437 16.14203125 31.74046875 17.0340625 30.8984375 17.953125 C30.27195312 18.62859375 29.64546875 19.3040625 29 20 C28.34 19.34 27.68 18.68 27 18 C26.01 18.66 25.02 19.32 24 20 C25.66751148 16.05860922 28.22710649 13.2107188 31 10 C20.35914287 8.16164054 9.68119574 6.58318119 -1 5 C-1 4.67 -1 4.34 -1 4 C0.65 4 2.3 4 4 4 C4 3.34 4 2.68 4 2 C2.68 2 1.36 2 0 2 C0 1.34 0 0.68 0 0 Z " fill="#F2F3EE" transform="translate(232,500)"/>
<path d="M0 0 C2 3 2 3 2 5 C0.5 6.625 0.5 6.625 -1 8 C-0.175 8.804375 0.65 9.60875 1.5 10.4375 C4.39660575 13.87568076 4.4977154 16.6672556 4.37109375 21.046875 C4 23 4 23 2 25 C-0.125 24.625 -0.125 24.625 -2 24 C-1.484375 23.484375 -0.96875 22.96875 -0.4375 22.4375 C1.2933895 19.96004737 1.2933895 19.96004737 1.0625 16.4375 C0.33761839 12.81912653 0.33761839 12.81912653 -2.6875 11.1875 C-7.32074137 9.5251483 -7.32074137 9.5251483 -12 8 C-12 4 -12 4 -11 3 C-7.47362528 2.84327223 -4.38094149 2.95971031 -1 4 C-0.67 2.68 -0.34 1.36 0 0 Z " fill="#0A0708" transform="translate(281,439)"/>
<path d="M0 0 C0.66 0 1.32 0 2 0 C3.49821059 3.37097383 4 5.20442119 4 9 C4.66 9 5.32 9 6 9 C6 9.66 6 10.32 6 11 C5.01 11 4.02 11 3 11 C2.67 15.95 2.34 20.9 2 26 C1.67 26 1.34 26 1 26 C0.0197752 20.31160882 -0.11948801 14.82705667 -0.0625 9.0625 C-0.05573242 7.75055664 -0.05573242 7.75055664 -0.04882812 6.41210938 C-0.03714834 4.27470953 -0.01921689 2.13734537 0 0 Z " fill="#9DCB68" transform="translate(544,313)"/>
<path d="M0 0 C2 3 2 3 2 5 C-2.21737229 7.25930658 -6.32956904 8.09186065 -11 9 C-11.66 7.68 -12.32 6.36 -13 5 C-11 3 -11 3 -8.125 2.8125 C-5.56748401 2.96595096 -3.43353596 3.2512197 -1 4 C-0.67 2.68 -0.34 1.36 0 0 Z " fill="#2D2B2C" transform="translate(281,439)"/>
<path d="M0 0 C-0.33 0.66 -0.66 1.32 -1 2 C-3.58361518 2.05407567 -6.16609255 2.093707 -8.75 2.125 C-9.47960937 2.14175781 -10.20921875 2.15851563 -10.9609375 2.17578125 C-14.8044624 2.21072239 -17.74606772 2.17499684 -21 0 C-14.17852898 -1.43609916 -6.78716727 -1.80991127 0 0 Z " fill="#091205" transform="translate(282,421)"/>
<path d="M0 0 C1.32 0.66 2.64 1.32 4 2 C4 3.65 4 5.3 4 7 C4.66 7 5.32 7 6 7 C6 5.68 6 4.36 6 3 C7.32 3.33 8.64 3.66 10 4 C9.01 4 8.02 4 7 4 C7 5.65 7 7.3 7 9 C6.34 9 5.68 9 5 9 C4.34 9.66 3.68 10.32 3 11 C1.68 7.7 0.36 4.4 -1 1 C-0.67 0.67 -0.34 0.34 0 0 Z " fill="#121011" transform="translate(265,464)"/>
<path d="M0 0 C0.639375 0.268125 1.27875 0.53625 1.9375 0.8125 C3.70406618 1.49749505 5.48707148 2.14719648 7.30078125 2.6953125 C8.10902344 2.94023437 8.91726563 3.18515625 9.75 3.4375 C10.52859375 3.66308594 11.3071875 3.88867188 12.109375 4.12109375 C13.04523438 4.55615234 13.04523438 4.55615234 14 5 C14.33 5.99 14.66 6.98 15 8 C14.01 8 13.02 8 12 8 C12 7.34 12 6.68 12 6 C11.113125 6.061875 10.22625 6.12375 9.3125 6.1875 C5.60632091 5.97771628 3.91488305 5.24862406 1 3 C0.67 2.01 0.34 1.02 0 0 Z " fill="#131112" transform="translate(262,450)"/>
<path d="M0 0 C3.465 1.98 3.465 1.98 7 4 C6.67 4.66 6.34 5.32 6 6 C5.34 6 4.68 6 4 6 C3.67 6.66 3.34 7.32 3 8 C1.35 7.01 -0.3 6.02 -2 5 C-1.34 4.67 -0.68 4.34 0 4 C-0.33 3.01 -0.66 2.02 -1 1 C-0.67 0.67 -0.34 0.34 0 0 Z " fill="#F1F1EA" transform="translate(400,494)"/>
<path d="M0 0 C2.42479736 3.63719605 2.38662577 5.85703482 2.625 10.1875 C2.69976562 11.45980469 2.77453125 12.73210937 2.8515625 14.04296875 C2.92503906 15.50669922 2.92503906 15.50669922 3 17 C2.34 17 1.68 17 1 17 C-0.53266582 13.93466836 -0.10276471 10.73245728 -0.0625 7.375 C-0.05798828 6.66859375 -0.05347656 5.9621875 -0.04882812 5.234375 C-0.03703875 3.48954725 -0.01910324 1.744763 0 0 Z " fill="#0D1608" transform="translate(241,443)"/>
<path d="M0 0 C5.94 0 11.88 0 18 0 C18 0.66 18 1.32 18 2 C18.66 2.33 19.32 2.66 20 3 C13.73 3 7.46 3 1 3 C0.67 2.01 0.34 1.02 0 0 Z " fill="#7DA748" transform="translate(264,418)"/>
<path d="M0 0 C0.66 0.33 1.32 0.66 2 1 C2.05399736 2.45792884 2.09279177 3.91642712 2.125 5.375 C2.14820313 6.18710937 2.17140625 6.99921875 2.1953125 7.8359375 C2 10 2 10 0 12 C-2.125 11.625 -2.125 11.625 -4 11 C-3.2884375 10.2265625 -3.2884375 10.2265625 -2.5625 9.4375 C-0.57190593 6.33217325 -0.34939182 3.63367496 0 0 Z " fill="#181415" transform="translate(283,452)"/>
<path d="M0 0 C0 0.66 0 1.32 0 2 C-0.66 2 -1.32 2 -2 2 C-2 2.66 -2 3.32 -2 4 C-2.66 4 -3.32 4 -4 4 C-4.33 4.99 -4.66 5.98 -5 7 C-5.9793879 8.02019573 -6.97895449 9.02149805 -8 10 C-8.33 10.66 -8.66 11.32 -9 12 C-9.703125 10.265625 -9.703125 10.265625 -10 8 C-8.671875 5.859375 -8.671875 5.859375 -6.75 3.75 C-6.12609375 3.04359375 -5.5021875 2.3371875 -4.859375 1.609375 C-3 0 -3 0 0 0 Z " fill="#94C560" transform="translate(270,512)"/>
<path d="M0 0 C1.134375 0.020625 2.26875 0.04125 3.4375 0.0625 C3.4375 0.7225 3.4375 1.3825 3.4375 2.0625 C4.0975 2.0625 4.7575 2.0625 5.4375 2.0625 C5.4375 2.7225 5.4375 3.3825 5.4375 4.0625 C-1.08557692 4.43173077 -1.08557692 4.43173077 -3.5 2.5625 C-4.0259375 1.82 -4.0259375 1.82 -4.5625 1.0625 C-3.5625 0.0625 -3.5625 0.0625 0 0 Z " fill="#0C0A0D" transform="translate(256.5625,473.9375)"/>
<path d="M0 0 C0 0.66 0 1.32 0 2 C-2.95481492 4.74375671 -3.77471908 5 -8 5 C-6.19780722 -0.02039417 -5.34443412 -1.60333024 0 0 Z " fill="#97C35E" transform="translate(448,521)"/>
<path d="M0 0 C0.66 0.33 1.32 0.66 2 1 C0.02 3.31 -1.96 5.62 -4 8 C-5.32 7.01 -6.64 6.02 -8 5 C-6.71475739 4.13619741 -5.42157581 3.28419631 -4.125 2.4375 C-3.04605469 1.72400391 -3.04605469 1.72400391 -1.9453125 0.99609375 C-1.30335938 0.66738281 -0.66140625 0.33867188 0 0 Z " fill="#7E7C7D" transform="translate(458,526)"/>
<path d="M0 0 C0.7734375 0.61875 0.7734375 0.61875 1.5625 1.25 C0.29642393 1.78229326 -0.97560412 2.30044544 -2.25 2.8125 C-2.95769531 3.10253906 -3.66539062 3.39257812 -4.39453125 3.69140625 C-6.4375 4.25 -6.4375 4.25 -9.4375 3.25 C-3.0375 -0.93461538 -3.0375 -0.93461538 0 0 Z " fill="#9CC670" transform="translate(436.4375,599.75)"/>
<path d="M0 0 C0.33 0 0.66 0 1 0 C0.25 7.625 0.25 7.625 -2 11 C-3.14947895 7.44706507 -3.0868937 6.20023331 -1.5625 2.6875 C-1.046875 1.800625 -0.53125 0.91375 0 0 Z " fill="#151A0C" transform="translate(245,434)"/>
<path d="M0 0 C0 3 0 3 -1 6 C-4.5625 7.1875 -4.5625 7.1875 -8 8 C-5.33333333 5.33333333 -2.66666667 2.66666667 0 0 Z " fill="#9EC261" transform="translate(471,572)"/>
<path d="M0 0 C2.475 0.99 2.475 0.99 5 2 C5 3.65 5 5.3 5 7 C3.02 5.35 1.04 3.7 -1 2 C-0.67 1.34 -0.34 0.68 0 0 Z " fill="#F1F7EA" transform="translate(363,468)"/>
<path d="M0 0 C1.08667969 0.29197266 1.08667969 0.29197266 2.1953125 0.58984375 C2.74960937 0.74582031 3.30390625 0.90179688 3.875 1.0625 C3.215 1.7225 2.555 2.3825 1.875 3.0625 C-1.56665321 2.70950993 -3.19372538 2.01668308 -6.125 0.0625 C-3.57797384 -1.21101308 -2.6967055 -0.73941925 0 0 Z " fill="#242223" transform="translate(269.125,456.9375)"/>
<path d="M0 0 C0.66 0.66 1.32 1.32 2 2 C-3.625 5 -3.625 5 -7 5 C-7 4.34 -7 3.68 -7 3 C-4.69 2.01 -2.38 1.02 0 0 Z " fill="#0B0C07" transform="translate(287,476)"/>
<path d="M0 0 C0.33 1.32 0.66 2.64 1 4 C-0.8125 5.0625 -0.8125 5.0625 -3 6 C-3.99 5.67 -4.98 5.34 -6 5 C-5.01 4.67 -4.02 4.34 -3 4 C-3 3.34 -3 2.68 -3 2 C-2.01 1.34 -1.02 0.68 0 0 Z " fill="#97C761" transform="translate(461,580)"/>
</svg>
